<svg width="36" height="34" viewBox="0 0 36 34" fill="none" xmlns="http://www.w3.org/2000/svg">
<g clip-path="url(#clip0)">
<path d="M19.6859 0.861783L24.8136 8.05089C25.0669 8.40601 25.4299 8.67175 25.849 8.80884L34.5921 11.669C35.6705 12.0218 36.2533 13.1658 35.8938 14.2242C35.8057 14.4837 35.6647 14.7229 35.4795 14.9274L29.9011 21.0864C29.5299 21.4963 29.3444 22.0366 29.3873 22.5834L30.1116 31.8245C30.1988 32.9368 29.3507 33.9079 28.2173 33.9935C27.9437 34.0142 27.6688 33.9809 27.4085 33.8958L18.6506 31.0308C18.2281 30.8925 17.7713 30.8925 17.3488 31.0308L8.59094 33.8958C7.51253 34.2486 6.34688 33.6766 5.98741 32.6182C5.90066 32.3628 5.86681 32.093 5.88785 31.8245L6.61217 22.5834C6.65503 22.0366 6.46955 21.4963 6.09833 21.0864L0.519922 14.9274C-0.235295 14.0936 -0.158767 12.8168 0.690853 12.0756C0.899189 11.8939 1.14297 11.7555 1.40741 11.669L10.1505 8.80884C10.5695 8.67175 10.9325 8.40601 11.1858 8.05089L16.3135 0.861783C16.9654 -0.0521683 18.2488 -0.274439 19.1801 0.365326C19.3769 0.500564 19.5481 0.668587 19.6859 0.861783Z" fill="url(#paint0_linear)"/>
</g>
<defs>
<linearGradient id="paint0_linear" x1="59" y1="34" x2="-17" y2="34" gradientUnits="userSpaceOnUse">
<stop offset="0.532496" stop-color="#FCE4A1"/>
<stop offset="0.53976" stop-color="#FFB900"/>
</linearGradient>
<clipPath id="clip0">
<rect width="36" height="34" fill="white"/>
</clipPath>
</defs>
</svg>
