<svg width="58" height="58" viewBox="0 0 58 58" fill="none" xmlns="http://www.w3.org/2000/svg">
<g clip-path="url(#clip0)">
<path d="M57.5954 20.8357L51.1155 3.9881C49.8876 0.803222 46.3103 -0.783183 43.1254 0.444706C43.0792 0.462572 43.0331 0.48092 42.9872 0.499872L10.6053 13.9231C7.52197 15.1879 6.00654 18.6781 7.18771 21.7945L8.07809 24.1711H6.03563C2.70384 24.1749 0.00374209 26.875 0 30.2068V51.935C0.00374209 55.2668 2.70384 57.9669 6.03563 57.9707H47.0779C50.4097 57.9669 53.1098 55.2668 53.1136 51.935V30.2068C53.1116 29.8792 53.0825 29.5523 53.0267 29.2295L54.1478 28.7756C57.2587 27.5005 58.7877 23.9793 57.5954 20.8357ZM6.03563 26.1027H47.0779C49.2454 26.1088 51.0334 27.8016 51.158 29.9655H1.95555C2.08012 27.8014 3.86812 26.1087 6.03563 26.1027ZM15.7419 20.2853L22.1966 17.0569L23.5235 20.3761L17.0688 23.6034L15.7419 20.2853ZM51.1822 51.9352C51.1795 54.2008 49.3436 56.0367 47.0779 56.0394H6.03563C3.76998 56.0367 1.93406 54.2008 1.9314 51.9352V39.6225H51.1822V51.9352ZM51.1822 37.6911H1.9314V31.8969H51.1822V37.6911ZM53.4236 26.9911L52.4144 27.3996C51.372 25.417 49.3179 24.1744 47.0779 24.1713H20.2527L25.1826 21.7058C25.6321 21.4814 25.8346 20.9498 25.6481 20.4832L23.5998 15.365C23.4017 14.8699 22.8398 14.6289 22.3446 14.8269C22.3196 14.8369 22.2951 14.8479 22.2711 14.86L14.0829 18.9565C13.6338 19.1812 13.4318 19.7127 13.6184 20.179L15.2157 24.1713H10.1399L8.99647 21.1216C8.18589 18.9804 9.22703 16.583 11.3451 15.7136L43.726 2.2904C45.8907 1.39278 48.3733 2.41993 49.271 4.58467C49.285 4.61835 49.2986 4.65227 49.3116 4.68631L55.7915 21.5339C56.6112 23.6941 55.5611 26.1141 53.4236 26.9911Z" fill="#7239F2"/>
<path d="M34.7381 53.3238C36.5377 54.3693 38.7599 54.3693 40.5595 53.3238C43.3264 54.9314 46.8727 53.9914 48.4803 51.2244C50.0878 48.4574 49.1478 44.9111 46.3808 43.3036C45.4927 42.7877 44.4836 42.517 43.4566 42.5195C42.4385 42.5199 41.4387 42.7905 40.5595 43.3036C37.7925 41.6961 34.2462 42.6359 32.6387 45.4029C31.0311 48.17 31.9711 51.7162 34.7381 53.3238ZM42.1741 44.6866C42.5849 44.5352 43.0187 44.4556 43.4566 44.451C45.5899 44.451 47.3194 46.1804 47.3194 48.3138C47.3194 50.4471 45.5899 52.1766 43.4566 52.1766C43.0187 52.172 42.5849 52.0923 42.1741 51.941C43.8839 49.825 43.8839 46.8025 42.1741 44.6866ZM40.5595 45.7856C41.8471 47.2252 41.8471 49.4024 40.5595 50.842C39.2718 49.4024 39.2718 47.2251 40.5595 45.7856ZM37.6624 44.451C38.1002 44.4554 38.534 44.5352 38.9448 44.6866C37.235 46.8025 37.235 49.8251 38.9448 51.941C38.534 52.0923 38.1002 52.172 37.6624 52.1766C35.529 52.1766 33.7996 50.4471 33.7996 48.3138C33.7996 46.1803 35.529 44.451 37.6624 44.451Z" fill="#7239F2"/>
<path d="M40.7355 19.9591L41.52 21.724L50.7329 17.6288L49.9483 15.8638L40.7355 19.9591Z" fill="#7239F2"/>
<path d="M47.8924 11.7753L34.5853 17.9174L35.3943 19.6702L48.7015 13.5281L47.8924 11.7753Z" fill="#7239F2"/>
</g>
<defs>
<clipPath id="clip0">
<rect width="58" height="58" fill="white"/>
</clipPath>
</defs>
</svg>
