<svg width="204" height="33" viewBox="0 0 204 33" fill="none" xmlns="http://www.w3.org/2000/svg">
<path d="M35.1167 24L41.5907 6.84H44.9187L51.3927 24H48.4547L46.8427 19.502H39.6147L37.9767 24H35.1167ZM42.4487 11.676L40.4207 17.24H46.0107L44.0347 11.728L43.2547 9.258H43.1767L42.4487 11.676ZM54.0457 24V11H56.5157L56.6457 13.236C57.079 12.3693 57.677 11.7367 58.4397 11.338C59.2197 10.9393 60.0864 10.74 61.0397 10.74C61.9584 10.74 62.7817 10.922 63.5097 11.286C64.255 11.6327 64.8444 12.17 65.2777 12.898C65.711 13.6087 65.9277 14.5013 65.9277 15.576V24H63.1457V16.434C63.1457 15.1513 62.877 14.2673 62.3397 13.782C61.8197 13.2793 61.161 13.028 60.3637 13.028C59.7917 13.028 59.237 13.158 58.6997 13.418C58.1624 13.678 57.7117 14.1113 57.3477 14.718C57.001 15.3073 56.8277 16.096 56.8277 17.084V24H54.0457ZM71.5474 8.816C70.9407 8.816 70.4727 8.66867 70.1434 8.374C69.8314 8.062 69.6754 7.62867 69.6754 7.074C69.6754 6.51933 69.8314 6.09467 70.1434 5.8C70.4727 5.50533 70.9407 5.358 71.5474 5.358C72.1367 5.358 72.5874 5.50533 72.8994 5.8C73.2287 6.09467 73.3934 6.51933 73.3934 7.074C73.3934 7.62867 73.2287 8.062 72.8994 8.374C72.5874 8.66867 72.1367 8.816 71.5474 8.816ZM72.9254 11V24H70.1434V11H72.9254ZM77.2781 24V11H79.7481L79.8781 13.184C80.3288 12.352 80.9268 11.7367 81.6721 11.338C82.4348 10.9393 83.2408 10.74 84.0901 10.74C85.0261 10.74 85.8841 10.9567 86.6641 11.39C87.4615 11.806 88.0595 12.4387 88.4581 13.288C88.7355 12.716 89.1168 12.2393 89.6021 11.858C90.0875 11.4767 90.6248 11.1993 91.2141 11.026C91.8035 10.8353 92.3841 10.74 92.9561 10.74C93.7881 10.74 94.5681 10.9133 95.2961 11.26C96.0241 11.6067 96.6135 12.1353 97.0641 12.846C97.5148 13.5567 97.7401 14.4667 97.7401 15.576V24H94.9581V16.018C94.9581 14.9433 94.6981 14.1807 94.1781 13.73C93.6755 13.262 93.0428 13.028 92.2801 13.028C91.3788 13.028 90.5901 13.366 89.9141 14.042C89.2381 14.7007 88.9001 15.6627 88.9001 16.928V24H86.1181V16.018C86.1181 14.9433 85.8581 14.1807 85.3381 13.73C84.8355 13.262 84.2028 13.028 83.4401 13.028C82.9201 13.028 82.4001 13.1667 81.8801 13.444C81.3601 13.7213 80.9268 14.1547 80.5801 14.744C80.2335 15.3333 80.0601 16.1133 80.0601 17.084V24H77.2781ZM109.472 15.654C109.472 14.7873 109.229 14.12 108.744 13.652C108.276 13.1667 107.626 12.924 106.794 12.924C106.014 12.924 105.338 13.106 104.766 13.47C104.211 13.834 103.812 14.4233 103.57 15.238L101.23 14.25C101.559 13.1927 102.2 12.3433 103.154 11.702C104.124 11.0607 105.372 10.74 106.898 10.74C107.92 10.74 108.83 10.9133 109.628 11.26C110.442 11.5893 111.075 12.1007 111.526 12.794C111.994 13.47 112.228 14.328 112.228 15.368V21.166C112.228 21.8073 112.548 22.128 113.19 22.128C113.502 22.128 113.805 22.0847 114.1 21.998L113.944 23.922C113.545 24.1127 113.042 24.208 112.436 24.208C111.742 24.208 111.144 24.052 110.642 23.74C110.139 23.428 109.801 22.96 109.628 22.336C109.212 22.9773 108.614 23.4627 107.834 23.792C107.054 24.104 106.274 24.26 105.494 24.26C104.263 24.26 103.24 23.9653 102.426 23.376C101.611 22.7867 101.204 21.9027 101.204 20.724C101.204 19.7707 101.516 18.982 102.14 18.358C102.781 17.734 103.682 17.3007 104.844 17.058L109.472 16.148V15.654ZM104.012 20.516C104.012 21.0013 104.194 21.3913 104.558 21.686C104.939 21.9633 105.442 22.102 106.066 22.102C106.655 22.102 107.21 22.0067 107.73 21.816C108.25 21.6253 108.666 21.3133 108.978 20.88C109.307 20.4467 109.472 19.8833 109.472 19.19V18.098L106.196 18.774C105.45 18.9127 104.896 19.112 104.532 19.372C104.185 19.632 104.012 20.0133 104.012 20.516ZM119.49 5.15V20.36C119.49 21.0013 119.603 21.4433 119.828 21.686C120.053 21.9287 120.426 22.05 120.946 22.05C121.258 22.05 121.518 22.0327 121.726 21.998C121.951 21.946 122.229 21.8593 122.558 21.738L122.246 23.818C121.639 24.1127 120.92 24.26 120.088 24.26C118.927 24.26 118.069 23.9653 117.514 23.376C116.977 22.7867 116.708 21.8593 116.708 20.594V5.15H119.49Z" fill="#7239F2"/>
<path d="M125.276 24V6.84H132.036C134.098 6.84 135.606 7.256 136.56 8.088C137.513 8.92 137.99 10.0727 137.99 11.546C137.99 12.4473 137.73 13.2533 137.21 13.964C136.69 14.6573 135.927 15.0993 134.922 15.29V15.316C136.031 15.5067 136.889 15.966 137.496 16.694C138.12 17.422 138.432 18.2713 138.432 19.242C138.432 20.7153 137.894 21.8767 136.82 22.726C135.745 23.5753 134.185 24 132.14 24H125.276ZM128.006 14.224H131.828C134.012 14.224 135.104 13.3833 135.104 11.702C135.104 10.0207 134.012 9.18 131.828 9.18H128.006V14.224ZM128.006 21.686H132.27C133.362 21.686 134.176 21.4607 134.714 21.01C135.268 20.5593 135.546 19.9267 135.546 19.112C135.546 18.2973 135.268 17.6647 134.714 17.214C134.176 16.7633 133.362 16.538 132.27 16.538H128.006V21.686ZM146.728 24.26C145.879 24.26 145.09 24.104 144.362 23.792C143.652 23.48 143.08 22.9773 142.646 22.284C142.213 21.5907 141.996 20.6893 141.996 19.58V11H144.778V18.878C144.778 20.0567 145.021 20.8713 145.506 21.322C146.009 21.7553 146.72 21.972 147.638 21.972C148.228 21.972 148.782 21.842 149.302 21.582C149.822 21.3047 150.238 20.88 150.55 20.308C150.88 19.7187 151.044 18.9647 151.044 18.046V11H153.826V24H151.382L151.252 21.894C150.802 22.7087 150.195 23.3067 149.432 23.688C148.67 24.0693 147.768 24.26 146.728 24.26ZM163.165 24.26C162.09 24.26 161.119 23.9913 160.253 23.454C159.386 22.9167 158.693 22.1453 158.173 21.14C157.67 20.1347 157.419 18.93 157.419 17.526C157.419 16.07 157.687 14.8393 158.225 13.834C158.762 12.8287 159.481 12.066 160.383 11.546C161.284 11.0087 162.272 10.74 163.347 10.74C164.283 10.74 165.097 10.9653 165.791 11.416C166.501 11.8493 167.03 12.43 167.377 13.158V5.15H170.159V24H167.689L167.533 21.53C167.186 22.3967 166.614 23.0727 165.817 23.558C165.019 24.026 164.135 24.26 163.165 24.26ZM163.763 22.024C164.855 22.024 165.73 21.608 166.389 20.776C167.047 19.944 167.377 18.8 167.377 17.344C167.377 15.992 167.047 14.9347 166.389 14.172C165.747 13.392 164.907 13.002 163.867 13.002C162.705 13.002 161.804 13.4007 161.163 14.198C160.521 14.9953 160.201 16.096 160.201 17.5C160.201 18.904 160.513 20.0133 161.137 20.828C161.761 21.6253 162.636 22.024 163.763 22.024ZM179.465 24.26C178.391 24.26 177.42 23.9913 176.553 23.454C175.687 22.9167 174.993 22.1453 174.473 21.14C173.971 20.1347 173.719 18.93 173.719 17.526C173.719 16.07 173.988 14.8393 174.525 13.834C175.063 12.8287 175.782 12.066 176.683 11.546C177.585 11.0087 178.573 10.74 179.647 10.74C180.583 10.74 181.398 10.9653 182.091 11.416C182.802 11.8493 183.331 12.43 183.677 13.158V5.15H186.459V24H183.989L183.833 21.53C183.487 22.3967 182.915 23.0727 182.117 23.558C181.32 24.026 180.436 24.26 179.465 24.26ZM180.063 22.024C181.155 22.024 182.031 21.608 182.689 20.776C183.348 19.944 183.677 18.8 183.677 17.344C183.677 15.992 183.348 14.9347 182.689 14.172C182.048 13.392 181.207 13.002 180.167 13.002C179.006 13.002 178.105 13.4007 177.463 14.198C176.822 14.9953 176.501 16.096 176.501 17.5C176.501 18.904 176.813 20.0133 177.437 20.828C178.061 21.6253 178.937 22.024 180.063 22.024ZM202.188 11L196.494 25.534C195.922 27.042 195.272 28.0907 194.544 28.68C193.816 29.2867 192.88 29.59 191.736 29.59C191.095 29.59 190.514 29.512 189.994 29.356C189.474 29.2 189.015 28.9747 188.616 28.68L189.292 26.522C189.916 27.0767 190.67 27.354 191.554 27.354C192.022 27.354 192.438 27.2327 192.802 26.99C193.184 26.7473 193.522 26.2447 193.816 25.482L194.388 24.078L193.01 20.854L188.954 11H192.074L194.96 19.164L195.714 21.608L196.572 18.93L199.302 11H202.188Z" fill="#FFB900"/>
<rect y="3" width="26" height="26" rx="13" fill="#7239F2"/>
<path d="M19.5891 10.0256C19.4813 10.4352 19.2909 10.8049 19.0485 11.1277C19.0971 10.903 19.1285 10.6715 19.1285 10.431C19.1285 8.72018 17.8294 7.33334 16.2267 7.33334C14.6241 7.33334 13.3249 8.72018 13.3249 10.431C13.3249 11.1512 13.5647 11.8055 13.9508 12.3316L9.88212 16.6749C9.38925 16.2627 8.77638 16.0068 8.10173 16.0068C6.49909 16.0068 5.19995 17.3936 5.19995 19.1044C5.19995 20.4223 5.97407 21.5404 7.06082 21.988C7.16857 21.5783 7.35907 21.2087 7.60136 20.8859C7.55283 21.1106 7.52138 21.3421 7.52138 21.5826C7.52138 23.2933 8.82052 24.6802 10.4232 24.6802C12.0258 24.6802 13.3249 23.2933 13.3249 21.5826C13.3249 20.8623 13.0852 20.2081 12.699 19.6819L16.7678 15.3386C17.2606 15.7509 17.8734 16.0068 18.5481 16.0068C20.1508 16.0068 21.4499 14.6199 21.4499 12.9091C21.4499 11.5912 20.6758 10.4731 19.5891 10.0256Z" fill="#C578FF"/>
</svg>
