<svg width="57" height="57" viewBox="0 0 57 57" fill="none" xmlns="http://www.w3.org/2000/svg">
<path d="M50.272 18.8633L56.5279 12.5567C56.713 12.3699 56.7994 12.1069 56.7611 11.8469C56.7227 11.5867 56.564 11.3598 56.3329 11.2346L35.7933 0.101977C35.4684 -0.0740332 35.0663 -0.0158086 34.8051 0.24559L28.4995 6.5511L22.1945 0.246035C22.0375 0.0879492 21.8271 0 21.6056 0C21.4664 0 21.3295 0.0355137 21.207 0.102422L14.6098 3.67695C14.4139 3.78382 14.2714 3.95972 14.2079 4.17347C14.1445 4.38722 14.1678 4.61321 14.2736 4.80915C14.4205 5.07857 14.7022 5.24678 15.0084 5.24678C15.1464 5.24678 15.2845 5.21116 15.4058 5.14547L21.4541 1.86697L27.1173 7.53012L8.05725 17.8322L2.44197 12.1712L12.4691 6.73635C12.6661 6.63059 12.8086 6.45469 12.8721 6.24094C12.9355 6.02719 12.9122 5.8012 12.8053 5.60526C12.6594 5.33585 12.3778 5.16774 12.0716 5.16774C11.9336 5.16774 11.7967 5.20325 11.6742 5.26894L0.667401 11.235C0.436951 11.3585 0.276639 11.5879 0.238787 11.8473C0.200936 12.1055 0.287883 12.3704 0.472576 12.5565L6.72777 18.8635L0.472131 25.1701C0.286992 25.3569 0.200602 25.6198 0.238899 25.8799C0.277307 26.1401 0.43595 26.367 0.667067 26.4922L7.06988 29.9625V45.0301C7.06977 45.0589 7.07122 45.0877 7.07411 45.1161C7.07534 45.1282 7.07768 45.14 7.07935 45.152C7.08146 45.1666 7.08313 45.1812 7.08602 45.1955C7.08959 45.2137 7.09449 45.2313 7.09916 45.249C7.10139 45.2571 7.10306 45.2653 7.10551 45.2735C7.11096 45.2914 7.11753 45.3089 7.1241 45.3265C7.12699 45.3343 7.12944 45.3422 7.13267 45.3498C7.13913 45.3657 7.14659 45.3807 7.15393 45.3958C7.1585 45.4053 7.16262 45.4148 7.16752 45.424C7.1742 45.4365 7.18166 45.4484 7.18878 45.4604C7.19568 45.4719 7.20225 45.4834 7.2096 45.4947C7.21572 45.5039 7.22262 45.5127 7.22919 45.5217C7.23866 45.5348 7.24801 45.548 7.25825 45.5607C7.26393 45.5677 7.27027 45.5742 7.27617 45.581C7.28797 45.5945 7.29977 45.6081 7.31247 45.6209C7.31903 45.6275 7.32627 45.6335 7.33306 45.6401C7.34575 45.652 7.35822 45.664 7.37169 45.6751C7.38472 45.6859 7.39852 45.6957 7.4121 45.7057C7.42012 45.7116 7.42758 45.7178 7.43582 45.7235C7.45975 45.7396 7.48458 45.7546 7.51018 45.7684L28.0987 56.8975C28.1283 56.9137 28.1592 56.9277 28.1909 56.9404C28.1978 56.9431 28.2049 56.9456 28.2119 56.948C28.235 56.9566 28.2585 56.9641 28.2827 56.9705C28.2914 56.9728 28.2999 56.9752 28.3086 56.9772C28.332 56.9826 28.3557 56.987 28.3798 56.9904C28.388 56.9915 28.396 56.9931 28.4043 56.9941C28.4356 56.9977 28.4675 57 28.4999 57C28.5323 57 28.5641 56.9977 28.5955 56.9941C28.6038 56.9931 28.6119 56.9915 28.6201 56.9904C28.6442 56.987 28.6679 56.9826 28.6911 56.9772C28.6998 56.9752 28.7085 56.9728 28.7171 56.9705C28.7411 56.964 28.7647 56.9566 28.7878 56.948C28.7948 56.9456 28.8018 56.9431 28.8087 56.9404C28.8403 56.9277 28.8713 56.9137 28.9009 56.8975L49.4894 45.7684C49.515 45.7546 49.5398 45.7396 49.5637 45.7235C49.572 45.7178 49.5795 45.7114 49.5874 45.7057C49.6011 45.6956 49.6149 45.6858 49.6278 45.6751C49.6413 45.664 49.6538 45.652 49.6665 45.6401C49.6733 45.6335 49.6805 45.6276 49.6871 45.6209C49.6998 45.6081 49.7116 45.5945 49.7234 45.581C49.7293 45.5742 49.7356 45.5677 49.7413 45.5607C49.7515 45.5481 49.7609 45.5349 49.7703 45.5217C49.7769 45.5127 49.7838 45.5039 49.7899 45.4947C49.7973 45.4834 49.8039 45.472 49.8108 45.4604C49.818 45.4484 49.8255 45.4365 49.832 45.424C49.8369 45.4148 49.841 45.4053 49.8456 45.3958C49.853 45.3807 49.8604 45.3657 49.8669 45.3498C49.8701 45.3422 49.8725 45.3343 49.8754 45.3265C49.882 45.309 49.8886 45.2915 49.894 45.2735C49.8965 45.2655 49.8982 45.2572 49.9004 45.249C49.9051 45.2313 49.91 45.2137 49.9135 45.1955C49.9164 45.1812 49.9181 45.1666 49.9202 45.152C49.9219 45.14 49.9243 45.1282 49.9254 45.1161C49.9283 45.0876 49.9298 45.0588 49.9297 45.0301V29.9625L56.3321 26.4923C56.5626 26.3676 56.7229 26.1383 56.7608 25.88C56.7986 25.6206 56.7118 25.3556 56.5281 25.1697L50.272 18.8633ZM35.5453 1.86708L54.5576 12.1717L48.9424 17.8325L29.8826 7.52979L35.5453 1.86708ZM8.29906 28.7294L2.44231 25.555L8.05747 19.8942L27.1174 30.197L21.4546 35.8597L8.30618 28.7332C8.30384 28.7319 8.30151 28.7307 8.29906 28.7294ZM27.665 54.7646L8.73969 44.5346V30.8676L21.2067 37.6248C21.3319 37.6926 21.4686 37.7257 21.6042 37.7257C21.8205 37.7257 22.0343 37.6417 22.1949 37.4812L27.665 32.0111V54.7646ZM28.5 29.0461L9.66249 18.8635L28.5004 8.68092L47.3379 18.8634L28.5 29.0461ZM48.7042 28.7278C48.6996 28.7301 48.6951 28.7326 48.6907 28.735L44.5309 30.9897C44.3339 31.0955 44.1914 31.2725 44.1279 31.4863C44.0644 31.7001 44.0878 31.926 44.1936 32.1221C44.3405 32.3915 44.6222 32.5585 44.9284 32.5585C45.0664 32.5585 45.2044 32.5238 45.3258 32.4583L48.2602 30.8677V44.5348L29.335 54.7648V32.0106L34.8055 37.4812C34.9637 37.6393 35.1729 37.7261 35.3955 37.7261C35.5336 37.7261 35.6705 37.6905 35.793 37.6248L42.3902 34.049C42.5861 33.9433 42.7286 33.7663 42.7921 33.5525C42.8555 33.3388 42.8322 33.1139 42.7264 32.9179C42.5794 32.6474 42.2978 32.4804 41.9905 32.4804C41.8536 32.4804 41.7155 32.5149 41.5942 32.5817L35.5458 35.859L29.8827 30.1971L48.9428 19.8938L54.5581 25.5548L48.7042 28.7278Z" fill="#7239F2"/>
</svg>
