<svg width="73" height="73" viewBox="0 0 73 73" fill="none" xmlns="http://www.w3.org/2000/svg">
<path d="M17.0334 48.0583C13.0074 48.0583 9.7334 51.3324 9.7334 55.3584C9.7334 59.3843 13.0074 62.6584 17.0334 62.6584C21.0594 62.6584 24.3334 59.3843 24.3334 55.3584C24.3334 51.3324 21.0592 48.0583 17.0334 48.0583ZM17.0334 60.225C14.3494 60.225 12.1668 58.0422 12.1668 55.3584C12.1668 52.6743 14.3495 50.4917 17.0334 50.4917C19.7173 50.4917 21.9 52.6745 21.9 55.3584C21.9 58.0422 19.7173 60.225 17.0334 60.225Z" fill="#7239F2"/>
<path d="M58.4 48.0583C54.374 48.0583 51.1 51.3324 51.1 55.3584C51.1 59.3843 54.374 62.6584 58.4 62.6584C62.426 62.6584 65.7 59.3843 65.7 55.3584C65.7 51.3324 62.426 48.0583 58.4 48.0583ZM58.4 60.225C55.7159 60.225 53.5334 58.0422 53.5334 55.3584C53.5334 52.6743 55.7161 50.4917 58.4 50.4917C61.084 50.4917 63.2666 52.6745 63.2666 55.3584C63.2666 58.0422 61.084 60.225 58.4 60.225Z" fill="#7239F2"/>
<path d="M72.8066 41.3169L61.8565 24.2835C61.6327 23.9354 61.247 23.725 60.8333 23.725H47.45C46.7772 23.725 46.2334 24.2701 46.2334 24.9416V55.3582C46.2334 56.0311 46.7772 56.5749 47.45 56.5749H52.3166V54.1415H48.6666V26.1584H60.169L70.5666 42.3327V54.1418H64.4833V56.575H71.7833C72.4561 56.575 72.9999 56.0312 72.9999 55.3584V41.975C73 41.7426 72.9332 41.5126 72.8066 41.3169Z" fill="#7239F2"/>
<path d="M53.5333 39.5416V31.025H63.2667V28.5916H52.3167C51.6439 28.5916 51.1001 29.1367 51.1001 29.8082V40.7582C51.1001 41.4311 51.6439 41.9748 52.3167 41.9748H70.5667V39.5415H53.5333V39.5416Z" fill="#7239F2"/>
<path d="M47.45 15.2084H1.21662C0.545076 15.2084 0 15.7535 0 16.425V55.3584C0 56.0312 0.545076 56.575 1.21662 56.575H10.95V54.1416H2.43338V17.6416H46.2334V54.1416H23.1166V56.575H47.45C48.1228 56.575 48.6666 56.0312 48.6666 55.3584V16.425C48.6666 15.7535 48.1228 15.2084 47.45 15.2084Z" fill="#7239F2"/>
<path d="M8.51667 49.275H1.21667V51.7084H8.51667V49.275Z" fill="#7239F2"/>
<path d="M46.2334 49.275H25.55V51.7084H46.2334V49.275Z" fill="#7239F2"/>
<path d="M71.7832 49.275H66.9166V51.7084H71.7832V49.275Z" fill="#7239F2"/>
<path d="M47.45 20.075H4.86658V22.5084H47.45V20.075Z" fill="#7239F2"/>
<path d="M18.25 54.1416H15.8167V56.575H18.25V54.1416Z" fill="#7239F2"/>
<path d="M59.6167 54.1416H57.1833V56.575H59.6167V54.1416Z" fill="#7239F2"/>
<path d="M21.9 10.3416H4.86658V12.775H21.9V10.3416Z" fill="#7239F2"/>
<path d="M2.43338 10.3416H0V12.775H2.43338V10.3416Z" fill="#7239F2"/>
</svg>
